<svg xmlns="http://www.w3.org/2000/svg" xmlns:xlink="http://www.w3.org/1999/xlink" viewBox="0 0 12 12"><defs><path id="a" d="M832.886 986.437a.64.64 0 0 1 .12.497l-.506 3.011a.573.573 0 0 1-.206.387.61.61 0 0 1-.405.152h-7.358l-.146.856h7.013a.6.6 0 0 1 .438.186.63.63 0 0 1 .186.463.629.629 0 0 1-.186.463.6.6 0 0 1-.438.186h-7.757a.607.607 0 0 1-.478-.235.69.69 0 0 1-.146-.538l.332-1.879-.505-5.275-1.435-.47a.594.594 0 0 1-.365-.317.71.71 0 0 1-.046-.497.602.602 0 0 1 .312-.38.625.625 0 0 1 .471-.048l1.833.607a.57.57 0 0 1 .286.207.737.737 0 0 1 .14.346l.106 1.05 8.315.966a.588.588 0 0 1 .425.262zm-8.302 6.56c.266 0 .491.097.677.29a.978.978 0 0 1 .28.705.999.999 0 0 1-.28.71.895.895 0 0 1-.677.298.895.895 0 0 1-.677-.297 1.002 1.002 0 0 1-.28-.711.98.98 0 0 1 .28-.705.904.904 0 0 1 .677-.29zm5.672 0c.265 0 .491.097.677.29a.979.979 0 0 1 .279.705.998.998 0 0 1-.279.71.895.895 0 0 1-.677.298.895.895 0 0 1-.678-.297 1.002 1.002 0 0 1-.279-.711c0-.277.093-.511.28-.705a.904.904 0 0 1 .677-.29z"/></defs><use fill="#fff" xlink:href="#a" transform="translate(-821 -983)"/></svg>